HIERARCHY
ROOT hip
{
  OFFSET 32.1871 79.8687 223.307
  CHANNELS 6 Xposition Yposition Zposition Zrotation Xrotation Yrotation
  JOINT abdomen
  {
    OFFSET 0 20.6881 -0.73152
    CHANNELS 3 Zrotation Xrotation Yrotation
    JOINT chest
    {
      OFFSET 0 11.7043 -0.48768
      CHANNELS 3 Zrotation Xrotation Yrotation
      JOINT neck
      {
        OFFSET 0 22.1894 -2.19456
        CHANNELS 3 Zrotation Xrotation Yrotation
        JOINT head
        {
          OFFSET -0.24384 7.07133 1.2192
          CHANNELS 3 Zrotation Xrotation Yrotation
          JOINT leftEye
          {
            OFFSET 4.14528 8.04674 8.04672
            CHANNELS 3 Zrotation Xrotation Yrotation
            End Site
            {
              OFFSET 1 0 0
            }
          }
          JOINT rightEye
          {
            OFFSET -3.6576 8.04674 8.04672
            CHANNELS 3 Zrotation Xrotation Yrotation
            End Site
            {
              OFFSET 1 0 0
            }
          }
        }
      }
      JOINT rCollar
      {
        OFFSET -2.68224 19.2634 -4.8768
        CHANNELS 3 Zrotation Xrotation Yrotation
        JOINT rShldr
        {
          OFFSET -8.77824 -1.95073 1.46304
          CHANNELS 3 Zrotation Xrotation Yrotation
          JOINT rForeArm
          {
            OFFSET -28.1742 -1.7115 0.48768
            CHANNELS 3 Zrotation Xrotation Yrotation
            JOINT rHand
            {
              OFFSET -22.5879 0.773209 7.07136
              CHANNELS 3 Zrotation Xrotation Yrotation
              JOINT rThumb1
              {
                OFFSET -1.2192 -0.487915 3.41376
                CHANNELS 3 Zrotation Xrotation Yrotation
                JOINT rThumb2
                {
                  OFFSET -3.37035 -0.52449 3.41376
                  CHANNELS 3 Zrotation Xrotation Yrotation
                  End Site
                  {
                    OFFSET -1.78271 -1.18214 1.43049
                  }
                }
              }
              JOINT rIndex1
              {
                OFFSET -7.75947 0.938293 5.60832
                CHANNELS 3 Zrotation Xrotation Yrotation
                JOINT rIndex2
                {
                  OFFSET -2.54057 -0.884171 1.56538
                  CHANNELS 3 Zrotation Xrotation Yrotation
                  End Site
                  {
                    OFFSET -1.62519 -0.234802 1.16502
                  }
                }
              }
              JOINT rMid1
              {
                OFFSET -8.24714 1.18213 3.41376
                CHANNELS 3 Zrotation Xrotation Yrotation
                JOINT rMid2
                {
                  OFFSET -3.10165 -0.590103 1.0647
                  CHANNELS 3 Zrotation Xrotation Yrotation
                  End Site
                  {
                    OFFSET -2.48547 -0.328903 0.83742
                  }
                }
              }
              JOINT rRing1
              {
                OFFSET -8.82822 0.546677 1.51678
                CHANNELS 3 Zrotation Xrotation Yrotation
                JOINT rRing2
                {
                  OFFSET -2.60934 -0.819778 -0.0198488
                  CHANNELS 3 Zrotation Xrotation Yrotation
                  End Site
                  {
                    OFFSET -2.33842 -0.294052 0.168128
                  }
                }
              }
              JOINT rPinky1
              {
                OFFSET -8.27202 -0.0477905 -0.4584
                CHANNELS 3 Zrotation Xrotation Yrotation
                JOINT rPinky2
                {
                  OFFSET -1.82734 -0.647385 -0.700984
                  CHANNELS 3 Zrotation Xrotation Yrotation
                  End Site
                  {
                    OFFSET -1.69225 -0.51767 -0.607171
                  }
                }
              }
            }
          }
        }
      }
      JOINT lCollar
      {
        OFFSET 2.68224 19.2634 -4.8768
        CHANNELS 3 Zrotation Xrotation Yrotation
        JOINT lShldr
        {
          OFFSET 8.77824 -1.95073 1.46304
          CHANNELS 3 Zrotation Xrotation Yrotation
          JOINT lForeArm
          {
            OFFSET 28.1742 -1.7115 0.48768
            CHANNELS 3 Zrotation Xrotation Yrotation
            JOINT lHand
            {
              OFFSET 22.5879 0.773209 7.07136
              CHANNELS 3 Zrotation Xrotation Yrotation
              JOINT lThumb1
              {
                OFFSET 1.2192 -0.487915 3.41376
                CHANNELS 3 Zrotation Xrotation Yrotation
                JOINT lThumb2
                {
                  OFFSET 3.37035 -0.52449 3.41376
                  CHANNELS 3 Zrotation Xrotation Yrotation
                  End Site
                  {
                    OFFSET 1.78271 -1.18214 1.43049
                  }
                }
              }
              JOINT lIndex1
              {
                OFFSET 7.75947 0.938293 5.60832
                CHANNELS 3 Zrotation Xrotation Yrotation
                JOINT lIndex2
                {
                  OFFSET 2.54057 -0.884171 1.56538
                  CHANNELS 3 Zrotation Xrotation Yrotation
                  End Site
                  {
                    OFFSET 1.62519 -0.234802 1.16502
                  }
                }
              }
              JOINT lMid1
              {
                OFFSET 8.24714 1.18213 3.41376
                CHANNELS 3 Zrotation Xrotation Yrotation
                JOINT lMid2
                {
                  OFFSET 3.10165 -0.590103 1.0647
                  CHANNELS 3 Zrotation Xrotation Yrotation
                  End Site
                  {
                    OFFSET 2.48547 -0.328903 0.83742
                  }
                }
              }
              JOINT lRing1
              {
                OFFSET 8.82822 0.546677 1.51678
                CHANNELS 3 Zrotation Xrotation Yrotation
                JOINT lRing2
                {
                  OFFSET 2.60934 -0.819778 -0.0198488
                  CHANNELS 3 Zrotation Xrotation Yrotation
                  End Site
                  {
                    OFFSET 2.33842 -0.294052 0.168128
                  }
                }
              }
              JOINT lPinky1
              {
                OFFSET 8.27202 -0.0477905 -0.4584
                CHANNELS 3 Zrotation Xrotation Yrotation
                JOINT lPinky2
                {
                  OFFSET 1.82734 -0.647385 -0.700984
                  CHANNELS 3 Zrotation Xrotation Yrotation
                  End Site
                  {
                    OFFSET 1.69225 -0.51767 -0.607171
                  }
                }
              }
            }
          }
        }
      }
    }
  }
  JOINT rButtock
  {
    OFFSET -8.77824 4.35084 1.2192
    CHANNELS 3 Zrotation Xrotation Yrotation
    JOINT rThigh
    {
      OFFSET 0 -1.70687 -2.19456
      CHANNELS 3 Zrotation Xrotation Yrotation
      JOINT rShin
      {
        OFFSET 0 -36.8199 0.73152
        CHANNELS 3 Zrotation Xrotation Yrotation
        JOINT rFoot
        {
          OFFSET 0.73152 -45.1104 -5.12064
          CHANNELS 3 Zrotation Xrotation Yrotation
          End Site
          {
            OFFSET -1.1221 -3.69964 12.103
          }
        }
      }
    }
  }
  JOINT lButtock
  {
    OFFSET 8.77824 4.35084 1.2192
    CHANNELS 3 Zrotation Xrotation Yrotation
    JOINT lThigh
    {
      OFFSET 0 -1.70687 -2.19456
      CHANNELS 3 Zrotation Xrotation Yrotation
      JOINT lShin
      {
        OFFSET 0 -36.8199 0.73152
        CHANNELS 3 Zrotation Xrotation Yrotation
        JOINT lFoot
        {
          OFFSET -0.73152 -45.1104 -5.12064
          CHANNELS 3 Zrotation Xrotation Yrotation
          End Site
          {
            OFFSET 1.1221 -3.69964 12.103
          }
        }
      }
    }
  }
}
MOTION
Frames:	6
Frame Time:	0.00833333
41.5276 70.7289 79.109 -8.30111 10.8011 101.789 9.76709 27.4661 -2.77985 3.50444 -5.70258 -0.298341 -9.34558 17.4504 -21.0111 26.662 -28.6008 -35.9806 -0 0 0 -0 0 0 5.21145e-013 -2.33607e-012 -3.73253e-013 8.25945 -41.2554 -12.4033 -13.6243 -6.65509 24.8013 -2.9578 -42.9248 -7.51167 -4.29452e-009 -9.22259e-009 -1.70766e-009 -7.35497e-009 -1.67966e-008 -3.08769e-009 -4.29452e-009 -9.22259e-009 -1.70766e-009 7.73091 5.47488 0.417314 -4.29452e-009 -9.22259e-009 -1.70765e-009 2.90554 0.965183 0.102902 -4.29452e-009 -9.22258e-009 -1.70765e-009 10.2786 0.731801 0.0259123 -4.29453e-009 -9.22258e-009 -1.70764e-009 2.22167 -0.733487 -0.20892 5.20921e-013 -2.33608e-012 -3.73589e-013 -61.7896 -12.315 12.9918 14.5571 -7.41228 -26.6834 0.0269544 4.72823 -0.665985 -4.2425e-010 -6.09066e-009 -1.21745e-009 -7.27512e-010 -1.05507e-008 -2.10907e-009 -4.24251e-010 -6.09065e-009 -1.21744e-009 -7.73091 5.47488 -0.417314 -4.24248e-010 -6.09064e-009 -1.21746e-009 -2.90554 0.965183 -0.102902 -4.24253e-010 -6.09065e-009 -1.21745e-009 -10.2786 0.731801 -0.0259123 -4.24247e-010 -6.09065e-009 -1.21746e-009 -2.22167 -0.733487 0.20892 -2.03217e-016 0 -3.88251e-019 -17.9427 -25.1514 -9.49965 -0.346328 45.2015 1.30298 -0.899844 -14.5239 -4.11839 2.03217e-016 0 3.88251e-019 45.6574 -48.6691 34.8399 4.12892 78.2612 -4.65988 -5.88252 -16.1493 -13.0278 
41.3148 70.9059 79.3619 -8.33557 10.8748 101.609 9.65986 27.1396 -2.92541 3.58916 -5.62304 -0.34143 -9.43033 17.4465 -20.9938 26.8482 -28.2486 -35.9714 -0 0 0 -0 0 0 4.5331e-013 -2.05066e-012 -3.46482e-013 8.7028 -40.7885 -12.2741 -13.6263 -6.65679 24.8052 -2.95948 -42.9416 -7.51519 -4.04613e-009 -6.44683e-009 -1.30366e-009 -6.93956e-009 -1.19677e-008 -2.38289e-009 -4.04613e-009 -6.44683e-009 -1.30366e-009 7.73091 5.47488 0.417314 -4.04613e-009 -6.44683e-009 -1.30366e-009 2.90554 0.965183 0.102902 -4.04613e-009 -6.44683e-009 -1.30366e-009 10.2786 0.731801 0.0259123 -4.04613e-009 -6.44683e-009 -1.30365e-009 2.22167 -0.733487 -0.20892 4.53079e-013 -2.05067e-012 -3.4683e-013 -62.4156 -10.9896 12.8551 14.6066 -7.45454 -26.7828 0.0222089 4.25045 -0.598471 -3.65897e-010 -6.09248e-009 -1.25778e-009 -6.27032e-010 -1.05508e-008 -2.17787e-009 -3.65896e-010 -6.09248e-009 -1.25777e-009 -7.73091 5.47488 -0.417314 -3.65895e-010 -6.09247e-009 -1.25778e-009 -2.90554 0.965183 -0.102902 -3.65899e-010 -6.09247e-009 -1.25778e-009 -10.2786 0.731801 -0.0259123 -3.65895e-010 -6.09247e-009 -1.25778e-009 -2.22167 -0.733487 0.20892 -2.03217e-016 0 -3.88251e-019 -17.7147 -24.3628 -8.99916 -0.317703 44.0559 1.26223 -1.07094 -13.9811 -4.75208 2.03217e-016 0 3.88251e-019 44.5905 -48.2079 33.973 3.83208 77.5033 -4.33754 -6.09006 -16.9245 -13.1816 
41.0947 71.1241 79.6917 -8.43551 10.9333 101.334 9.61562 26.7338 -3.15607 3.70532 -5.55698 -0.402497 -9.48663 17.3857 -21.0051 26.8493 -27.8707 -36.048 -0 0 0 -0 0 0 4.24257e-013 -2.02133e-012 -2.52057e-013 9.05596 -41.0016 -12.1764 -13.5685 -6.61175 24.6891 -2.83519 -42.2611 -7.33459 -3.8776e-009 -6.97119e-009 -1.46212e-009 -6.64627e-009 -1.28271e-008 -2.64863e-009 -3.8776e-009 -6.97118e-009 -1.46213e-009 7.73091 5.47488 0.417314 -3.8776e-009 -6.97119e-009 -1.46213e-009 2.90554 0.965183 0.102902 -3.8776e-009 -6.97119e-009 -1.46213e-009 10.2786 0.731801 0.0259123 -3.87761e-009 -6.97119e-009 -1.46212e-009 2.22167 -0.733487 -0.20892 4.24002e-013 -2.02134e-012 -2.52422e-013 -63.1593 -9.54217 12.7217 14.6807 -7.51655 -26.9351 0.0186092 3.87766 -0.545827 1.99561e-010 -4.68283e-009 7.1415e-011 3.55029e-010 -8.11693e-009 1.19363e-010 1.99563e-010 -4.68283e-009 7.14181e-011 -7.73091 5.47488 -0.417314 1.99563e-010 -4.68283e-009 7.14116e-011 -2.90554 0.965183 -0.102902 1.99559e-010 -4.68283e-009 7.14161e-011 -10.2786 0.731801 -0.0259123 1.99563e-010 -4.68283e-009 7.141e-011 -2.22167 -0.733487 0.20892 -2.03217e-016 0 -3.88251e-019 -17.4981 -23.4529 -8.60218 -0.284774 42.6859 1.2166 -1.23648 -13.336 -5.44425 2.03217e-016 0 3.88251e-019 43.4193 -47.8776 33.0208 3.53652 76.6568 -4.01889 -6.23489 -17.5699 -13.2664 
40.8187 71.4276 80.1732 -8.57816 10.9559 100.981 9.59441 26.2603 -3.44799 3.86132 -5.49875 -0.477169 -9.54236 17.2833 -21.0362 26.7332 -27.4615 -36.1837 -0 0 0 -0 0 0 4.05456e-013 -2.09315e-012 -1.05946e-013 9.37576 -41.6327 -12.0775 -13.4734 -6.53775 24.4994 -2.64573 -41.1533 -7.05159 -3.68739e-009 -9.16123e-009 -1.9124e-009 -6.3078e-009 -1.65426e-008 -3.41556e-009 -3.68739e-009 -9.16123e-009 -1.91242e-009 7.73091 5.47488 0.417314 -3.68739e-009 -9.16124e-009 -1.91241e-009 2.90554 0.965183 0.102902 -3.68739e-009 -9.16125e-009 -1.91241e-009 10.2786 0.731801 0.0259123 -3.68739e-009 -9.16123e-009 -1.9124e-009 2.22167 -0.733487 -0.20892 4.05162e-013 -2.09316e-012 -1.06331e-013 -64.0122 -7.93424 12.5931 14.7818 -7.60097 -27.1452 0.0153916 3.53067 -0.49685 1.10251e-009 -2.29401e-009 2.29394e-009 1.92358e-009 -3.99357e-009 3.96012e-009 1.10251e-009 -2.29401e-009 2.29394e-009 -7.73091 5.47488 -0.417314 1.10251e-009 -2.294e-009 2.29394e-009 -2.90554 0.965183 -0.102902 1.10251e-009 -2.29401e-009 2.29394e-009 -10.2786 0.731801 -0.0259123 1.10252e-009 -2.29401e-009 2.29393e-009 -2.22167 -0.733487 0.20892 -2.03217e-016 0 -3.88251e-019 -17.3039 -22.4299 -8.27146 -0.249543 41.115 1.16793 -1.39607 -12.58 -6.21125 2.03217e-016 0 3.88251e-019 42.1013 -47.6137 31.9545 3.24485 75.7042 -3.70473 -6.34022 -18.1358 -13.3132 
40.554 71.79 80.6524 -8.75204 10.9588 100.574 9.59044 25.7635 -3.78047 4.03409 -5.45112 -0.561455 -9.60034 17.1637 -21.0702 26.5918 -27.0587 -36.3275 -0 0 0 -0 0 0 3.90329e-013 -2.19566e-012 4.95044e-014 9.73921 -42.3444 -11.963 -13.3815 -6.46633 24.3173 -2.47194 -40.0518 -6.78261 -3.42841e-009 -1.19242e-008 -2.4401e-009 -5.8482e-009 -2.12356e-008 -4.31392e-009 -3.42841e-009 -1.19242e-008 -2.44011e-009 7.73091 5.47488 0.417314 -3.42841e-009 -1.19242e-008 -2.4401e-009 2.90554 0.965183 0.102902 -3.42841e-009 -1.19243e-008 -2.44011e-009 10.2786 0.731801 0.0259123 -3.42841e-009 -1.19242e-008 -2.44009e-009 2.22167 -0.733487 -0.20892 3.90004e-013 -2.19567e-012 4.91052e-014 -64.9302 -6.27 12.4733 14.9223 -7.72095 -27.4341 0.0131627 3.27186 -0.460338 1.95179e-009 2.60806e-010 4.57128e-009 3.39946e-009 4.17214e-010 7.89604e-009 1.95179e-009 2.60801e-010 4.57128e-009 -7.73091 5.47488 -0.417314 1.95179e-009 2.60804e-010 4.57128e-009 -2.90554 0.965183 -0.102902 1.95178e-009 2.60803e-010 4.57128e-009 -10.2786 0.731801 -0.0259123 1.95179e-009 2.60803e-010 4.57127e-009 -2.22167 -0.733487 0.20892 -2.03217e-016 0 -3.88251e-019 -17.1279 -21.3981 -7.92234 -0.215407 39.4851 1.12063 -1.52368 -11.6743 -7.00774 2.03217e-016 0 3.88251e-019 40.7944 -47.4087 30.9546 2.98222 74.7209 -3.42213 -6.40654 -18.4964 -13.3765 
40.3966 72.2011 80.9833 -8.94557 10.9592 100.137 9.59967 25.2877 -4.13347 4.20052 -5.4169 -0.651362 -9.6632 17.0512 -21.0902 26.5155 -26.6996 -36.4285 -0 0 0 -0 0 0 3.72304e-013 -2.25839e-012 1.71949e-013 10.2209 -42.7993 -11.8177 -13.3342 -6.4295 24.2238 -2.37466 -39.392 -6.62719 -3.0536e-009 -1.41675e-008 -2.8308e-009 -5.19154e-009 -2.50274e-008 -4.97397e-009 -3.0536e-009 -1.41675e-008 -2.83083e-009 7.73091 5.47488 0.417314 -3.0536e-009 -1.41675e-008 -2.83081e-009 2.90554 0.965183 0.102902 -3.0536e-009 -1.41675e-008 -2.83082e-009 10.2786 0.731801 0.0259123 -3.0536e-009 -1.41675e-008 -2.8308e-009 2.22167 -0.733487 -0.20892 3.71971e-013 -2.2584e-012 1.71551e-013 -65.8705 -4.65377 12.3635 15.1137 -7.88911 -27.823 0.0122904 3.16358 -0.445069 2.35621e-009 2.16841e-009 6.06493e-009 4.10353e-009 3.7134e-009 1.04788e-008 2.3562e-009 2.1684e-009 6.06493e-009 -7.73091 5.47488 -0.417314 2.35621e-009 2.1684e-009 6.06493e-009 -2.90554 0.965183 -0.102902 2.3562e-009 2.1684e-009 6.06493e-009 -10.2786 0.731801 -0.0259123 2.35621e-009 2.1684e-009 6.06492e-009 -2.22167 -0.733487 0.20892 -2.03217e-016 0 -3.88251e-019 -16.9696 -20.4609 -7.47044 -0.18458 37.9384 1.078 -1.59334 -10.5811 -7.7892 2.03217e-016 0 3.88251e-019 39.6515 -47.2636 30.1997 2.76155 73.7827 -3.18598 -6.43507 -18.5254 -13.5107 
